<svg width="20" height="21" viewBox="0 0 20 21" fill="none" xmlns="http://www.w3.org/2000/svg">
<path fill-rule="evenodd" clip-rule="evenodd" d="M5.29279 7.79357C5.48031 7.6061 5.73462 7.50078 5.99979 7.50078C6.26495 7.50078 6.51926 7.6061 6.70679 7.79357L9.99979 11.0866L13.2928 7.79357C13.385 7.69806 13.4954 7.62188 13.6174 7.56947C13.7394 7.51706 13.8706 7.48947 14.0034 7.48832C14.1362 7.48717 14.2678 7.51247 14.3907 7.56275C14.5136 7.61303 14.6253 7.68728 14.7192 7.78117C14.8131 7.87507 14.8873 7.98672 14.9376 8.10962C14.9879 8.23251 15.0132 8.36419 15.012 8.49697C15.0109 8.62975 14.9833 8.76097 14.9309 8.88297C14.8785 9.00498 14.8023 9.11532 14.7068 9.20757L10.7068 13.2076C10.5193 13.395 10.265 13.5004 9.99979 13.5004C9.73462 13.5004 9.48031 13.395 9.29279 13.2076L5.29279 9.20757C5.10532 9.02004 5 8.76573 5 8.50057C5 8.23541 5.10532 7.9811 5.29279 7.79357Z" fill="#3F3F46"/>
</svg>
