<svg width="10" height="9" viewBox="0 0 10 9" fill="none" xmlns="http://www.w3.org/2000/svg">
<path d="M4.42958 0.754294C4.60958 0.201694 5.39138 0.201694 5.57078 0.754294L6.21278 2.72949C6.252 2.84979 6.32825 2.9546 6.43062 3.02896C6.533 3.10331 6.65625 3.1434 6.78278 3.14349H8.85998C9.44138 3.14349 9.68258 3.88749 9.21278 4.22949L7.53278 5.44989C7.4302 5.52431 7.35381 5.6293 7.31458 5.74981C7.27534 5.87031 7.27528 6.00015 7.31438 6.12069L7.95638 8.09589C8.13638 8.64849 7.50338 9.10869 7.03238 8.76669L5.35238 7.54629C5.2499 7.4719 5.12652 7.43183 4.99988 7.43183C4.87324 7.43183 4.74986 7.4719 4.64738 7.54629L2.96738 8.76669C2.49698 9.10869 1.86458 8.64849 2.04398 8.09589L2.68598 6.12069C2.72508 6.00015 2.72501 5.87031 2.68578 5.74981C2.64655 5.6293 2.57016 5.52431 2.46758 5.44989L0.78818 4.23009C0.31838 3.88809 0.56018 3.14409 1.14098 3.14409H3.21758C3.34421 3.14413 3.4676 3.1041 3.57009 3.02973C3.67259 2.95537 3.74892 2.85048 3.78818 2.73009L4.43018 0.754894L4.42958 0.754294Z" fill="#22C55E"/>
</svg>
